<svg xmlns="http://www.w3.org/2000/svg" xmlns:xlink="http://www.w3.org/1999/xlink" width="33.79" height="53.758" viewBox="0 0 33.79 53.758">
  <defs>
    <linearGradient id="linear-gradient" x1="0.13" y1="0.367" x2="0.923" y2="0.651" gradientUnits="objectBoundingBox">
      <stop offset="0" stop-color="#78776b"/>
      <stop offset="0.024" stop-color="#848377"/>
      <stop offset="0.056" stop-color="#8e8c80"/>
      <stop offset="0.097" stop-color="#929084"/>
      <stop offset="0.1" stop-color="#939186"/>
      <stop offset="0.132" stop-color="#a2a196"/>
      <stop offset="0.168" stop-color="#ababa0"/>
      <stop offset="0.212" stop-color="#aeaea4"/>
      <stop offset="0.406" stop-color="#fbfcf6"/>
      <stop offset="0.427" stop-color="#fbfcf6"/>
      <stop offset="0.642" stop-color="#fcfcfa"/>
      <stop offset="0.661" stop-color="#d2d2d1"/>
      <stop offset="0.681" stop-color="#adadac"/>
      <stop offset="0.703" stop-color="#8e8e8e"/>
      <stop offset="0.725" stop-color="#777776"/>
      <stop offset="0.748" stop-color="#666"/>
      <stop offset="0.774" stop-color="#5c5c5c"/>
      <stop offset="0.806" stop-color="#595959"/>
      <stop offset="0.808" stop-color="#5a5a5a"/>
      <stop offset="0.849" stop-color="#71716c"/>
      <stop offset="0.893" stop-color="#828279"/>
      <stop offset="0.94" stop-color="#8c8c81"/>
      <stop offset="1" stop-color="#909084"/>
    </linearGradient>
    <linearGradient id="linear-gradient-2" x1="0.078" y1="0.652" x2="0.871" y2="0.368" gradientUnits="objectBoundingBox">
      <stop offset="0" stop-color="#36363d"/>
      <stop offset="0.042" stop-color="#38383f"/>
      <stop offset="0.068" stop-color="#404047"/>
      <stop offset="0.089" stop-color="#4f4f54"/>
      <stop offset="0.107" stop-color="#636368"/>
      <stop offset="0.124" stop-color="#7d7d81"/>
      <stop offset="0.139" stop-color="#9d9d9f"/>
      <stop offset="0.145" stop-color="#acacad"/>
      <stop offset="0.154" stop-color="#9d9d9f"/>
      <stop offset="0.177" stop-color="#7d7d81"/>
      <stop offset="0.201" stop-color="#636368"/>
      <stop offset="0.228" stop-color="#4f4f54"/>
      <stop offset="0.259" stop-color="#404047"/>
      <stop offset="0.296" stop-color="#38383f"/>
      <stop offset="0.358" stop-color="#36363d"/>
      <stop offset="0.75" stop-color="#36363d"/>
      <stop offset="0.812" stop-color="#36363d"/>
      <stop offset="0.861" stop-color="#38383f"/>
      <stop offset="0.891" stop-color="#404046"/>
      <stop offset="0.915" stop-color="#4f4f52"/>
      <stop offset="0.933" stop-color="#606061"/>
      <stop offset="0.941" stop-color="#4a4a4d"/>
      <stop offset="0.951" stop-color="#36363a"/>
      <stop offset="0.963" stop-color="#27272d"/>
      <stop offset="0.977" stop-color="#1f1f26"/>
      <stop offset="1" stop-color="#1d1d24"/>
    </linearGradient>
    <linearGradient id="linear-gradient-3" x1="0.14" y1="0.369" x2="0.902" y2="0.645" xlink:href="#linear-gradient-2"/>
    <linearGradient id="linear-gradient-4" x1="0.138" y1="0.369" x2="0.909" y2="0.647" xlink:href="#linear-gradient-2"/>
    <linearGradient id="linear-gradient-5" x1="0.138" y1="0.369" x2="0.913" y2="0.648" xlink:href="#linear-gradient-2"/>
    <linearGradient id="linear-gradient-6" x1="0.129" y1="0.366" x2="0.923" y2="0.652" xlink:href="#linear-gradient-2"/>
    <linearGradient id="linear-gradient-7" x1="0.133" y1="0.368" x2="0.919" y2="0.65" xlink:href="#linear-gradient-2"/>
  </defs>
  <g id="Group_3759" data-name="Group 3759" transform="translate(-185.427 -286.642)">
    <g id="Group_328" data-name="Group 328" transform="translate(154.326 265.678)">
      <g id="Group_268" data-name="Group 268">
        <path id="Path_172" data-name="Path 172" d="M62.906,52,48.347,72.589V60.6ZM33.092,52,47.774,72.594v-12Zm-.387-3.162,15.069,8.947V42.1ZM48.347,42.1V57.784l14.948-8.945Zm0-.627L63.2,48.167,48.347,23.412ZM32.8,48.169l14.972-6.693V23.406Z" fill="url(#linear-gradient)"/>
        <g id="Group_257" data-name="Group 257" opacity="0.7" style="mix-blend-mode: screen;isolation: isolate">
          <path id="Path_173" data-name="Path 173" d="M62.906,52,48.347,72.589V60.6ZM33.092,52,47.774,72.594v-12Zm-.387-3.162,15.069,8.947V42.1ZM48.347,42.1V57.784l14.948-8.945Zm0-.627L63.2,48.167,48.347,23.412ZM32.8,48.169l14.972-6.693V23.406Z" fill="url(#linear-gradient-2)"/>
        </g>
        <g id="Group_259" data-name="Group 259" style="mix-blend-mode: screen;isolation: isolate">
          <g id="Group_258" data-name="Group 258">
            <path id="Path_174" data-name="Path 174" d="M47.669,74.722V73.614L32.54,52.394l.9-.978,14.624,8.562,14.5-8.559.9.976L48.452,73.614v1.1l-.39-.547ZM35.483,54.186,47.1,70.475v-9.49Zm13.542,6.8v9.474l11.5-16.26Zm-1.356-2v-.467l-15.61-9.268-.958.428.443-.734-.311-.184.58-.259L47.669,22.27V20.964l.393.656.39-.646v1.3L64.185,48.5l.572.258-.307.184.441.736-.953-.43L48.452,58.511v.466l-.391-.232ZM34.176,48.924,47.1,56.6V43.148Zm14.849-5.772V56.588l12.808-7.664ZM47.1,25.838,34.5,46.666,47.1,41.036Zm1.929,15.2L61.5,46.659,49.025,25.86Z" fill="url(#linear-gradient-3)"/>
          </g>
        </g>
        <g id="Group_261" data-name="Group 261" style="mix-blend-mode: screen;isolation: isolate">
          <g id="Group_260" data-name="Group 260">
            <path id="Path_175" data-name="Path 175" d="M47.9,74.011v-.47L32.724,52.263l.6-.652L48.06,60.24l.057-.034,14.559-8.592.6.65L48.226,73.542v.465l-.165-.232ZM34.686,53.458,47.322,71.181V60.855Zm14.113,7.4V71.167l12.52-17.7Zm-.9-2.272v-.2L32.074,48.99l-.406.181.188-.311-.132-.078.245-.11L47.9,22.333V21.78l.166.278.165-.273v.548l15.8,26.34.243.109-.13.078.187.312-.4-.182-15.7,9.392v.2l-.166-.1ZM33.685,48.9l13.637,8.1V42.8ZM48.8,42.8V56.986L62.32,48.9ZM47.322,25.027,33.936,47.167l13.386-5.984ZM48.8,41.184l13.268,5.978L48.8,25.044Z" fill="url(#linear-gradient-4)"/>
          </g>
        </g>
        <g id="Group_263" data-name="Group 263" opacity="0.4" style="mix-blend-mode: multiply;isolation: isolate">
          <g id="Group_262" data-name="Group 262">
            <path id="Path_176" data-name="Path 176" d="M48.008,73.656V73.5L32.816,52.2l.447-.49,14.8,8.663.114-.068,14.56-8.592.449.488L48.113,73.506v.148l-.052-.074ZM34.287,53.093,47.435,71.534V60.791Zm14.4,7.7V71.523L61.716,53.1Zm-.678-2.408v-.062L32.081,48.863l-.13.058.06-.1c-.042-.026.037-.061.037-.061l15.96-26.4v-.177l.053.089.052-.087v.174l15.836,26.4.077.034c-.041.025.018.124.018.124l-.128-.057-15.8,9.455v.063l-.053-.031Zm-14.568-9.5,14,8.309V42.625Zm15.246-6.253V57.186l13.878-8.305ZM47.435,24.622l-13.783,22.8,13.783-6.162Zm1.251,16.635,13.663,6.156L48.686,24.636Z" fill="url(#linear-gradient-5)"/>
          </g>
        </g>
        <g id="Group_265" data-name="Group 265" opacity="0.5" style="mix-blend-mode: multiply;isolation: isolate">
          <g id="Group_264" data-name="Group 264">
            <path id="Path_177" data-name="Path 177" d="M47.774,72.82a.226.226,0,0,1-.184-.1L32.908,52.132a.226.226,0,0,1,.3-.326l14.682,8.6A.225.225,0,0,1,48,60.6v12a.225.225,0,0,1-.157.215A.207.207,0,0,1,47.774,72.82ZM33.889,52.729,47.548,71.888V60.726ZM48.347,72.815a.235.235,0,0,1-.069-.01.226.226,0,0,1-.157-.216V60.6a.227.227,0,0,1,.111-.195l14.559-8.591a.226.226,0,0,1,.3.325L48.531,72.72A.224.224,0,0,1,48.347,72.815Zm.226-12.091V71.878l13.54-19.144Zm-.8-2.712a.224.224,0,0,1-.115-.032l-15.07-8.947a.227.227,0,0,1,.023-.4L47.682,41.9A.225.225,0,0,1,48,42.1V57.786a.227.227,0,0,1-.226.226ZM33.195,48.867l14.353,8.522V42.451ZM48.347,58.01a.227.227,0,0,1-.226-.226V42.1a.225.225,0,0,1,.318-.206l14.949,6.736a.225.225,0,0,1,.133.193.229.229,0,0,1-.11.207L48.463,57.978A.231.231,0,0,1,48.347,58.01Zm.226-15.557V57.385l14.235-8.518ZM32.8,48.4a.225.225,0,0,1-.17-.076.227.227,0,0,1-.024-.267L47.581,23.289a.226.226,0,0,1,.419.117v18.07a.226.226,0,0,1-.134.206L32.894,48.376A.23.23,0,0,1,32.8,48.4ZM47.548,24.217,33.369,47.668l14.179-6.339ZM63.2,48.393a.232.232,0,0,1-.093-.02l-14.85-6.691a.226.226,0,0,1-.133-.206V23.412a.225.225,0,0,1,.419-.116L63.39,48.051a.226.226,0,0,1-.193.342ZM48.573,41.329l14.059,6.335L48.573,24.228Z" fill="url(#linear-gradient-6)"/>
          </g>
        </g>
        <g id="Group_267" data-name="Group 267" style="mix-blend-mode: multiply;isolation: isolate">
          <g id="Group_266" data-name="Group 266">
            <path id="Path_178" data-name="Path 178" d="M47.89,72.955,33,52.068l.153-.167L47.89,60.53ZM33.5,52.373l14.159,19.86V60.663Zm14.731,20.58V60.529L62.847,51.9,63,52.07Zm.231-12.292V72.226L62.5,52.377Zm-.572-2.672L32.454,48.824l15.436-6.9ZM32.955,48.853l14.7,8.73V42.28Zm15.276,9.134V41.924l15.313,6.9Zm.231-15.7v15.3l14.584-8.727Zm-15.95,6.143L47.89,22.992V41.551Zm15.147-24.6L33.092,47.913,47.659,41.4Zm15.826,24.6L48.231,41.55V23ZM48.462,41.4,62.908,47.91,48.462,23.829Z" fill="url(#linear-gradient-7)"/>
          </g>
        </g>
      </g>
    </g>
  </g>
</svg>
