<svg xmlns="http://www.w3.org/2000/svg" xmlns:xlink="http://www.w3.org/1999/xlink" width="73.631" height="75.553" viewBox="0 0 73.631 75.553">
  <defs>
    <linearGradient id="linear-gradient" x1="3.728" y1="-2.739" x2="0.603" y2="0.198" gradientUnits="objectBoundingBox">
      <stop offset="0" stop-color="#f2f2f2"/>
      <stop offset="0.104" stop-color="#f2e6e6"/>
      <stop offset="0.291" stop-color="#f4c6c7"/>
      <stop offset="0.539" stop-color="#f79396"/>
      <stop offset="0.837" stop-color="#fb4d52"/>
      <stop offset="1" stop-color="#fe242a"/>
    </linearGradient>
    <linearGradient id="linear-gradient-2" x1="0.713" y1="0.287" x2="0.223" y2="0.794" gradientUnits="objectBoundingBox">
      <stop offset="0" stop-color="#ffa0d6" stop-opacity="0.89"/>
      <stop offset="0.104" stop-color="#fd82c7" stop-opacity="0.898"/>
      <stop offset="0.291" stop-color="#fc6fbf" stop-opacity="0.898"/>
      <stop offset="0.539" stop-color="#fa54b3" stop-opacity="0.898"/>
      <stop offset="0.837" stop-color="#e3449e" stop-opacity="0.898"/>
      <stop offset="1" stop-color="#ce2585" stop-opacity="0.898"/>
    </linearGradient>
  </defs>
  <g id="Group_3732" data-name="Group 3732" transform="translate(-901.448 390.9)">
    <g id="Group_118" data-name="Group 118" transform="translate(901.448 -390.9)">
      <path id="Path_1" data-name="Path 1" d="M253.639,264.238l1.087-3.8-.276-.287-3.688,2.857,7.569-15.224.015-.08.007-.239-8.192-16.11L242.35,227,234,226.316l-7.947-.621,16.349-1.733,7.591-4.884,8.926,6.829,6,3.591,1.923,4.692,3.863,4.471.239,8.754-18.391,20.7Z" transform="translate(-223.572 -193.425)" fill="#fa2c22"/>
      <g id="Group_1" data-name="Group 1" transform="translate(35.483 11.523)">
        <path id="Path_2" data-name="Path 2" d="M381.292,271.191l2.9-6.133-4.979.837Z" transform="translate(-378.214 -240.721)" fill="url(#linear-gradient)"/>
        <path id="Path_3" data-name="Path 3" d="M406.463,165.1l-3.869.976-3.022-4.1-.425-6.553L382.78,169.353l-1.077.913s-.007,0-.01-.008l-2.24,1.917-2.917,2.474h0l-1.811,1.539,5.974,3.576,2.014,4.8-1.381,6.427,5.2-2.014.384-.241,6-5.271.169-.14s.688-.647.689-.645l5.118-4.5s1.005-.918,1.006-.917l4.217-3.779Z" transform="translate(-374.724 -155.425)" fill="url(#linear-gradient-2)"/>
      </g>
      <path id="Path_4" data-name="Path 4" d="M355.965,351.827l6.314-4.911-19.054,21.521,1.358-4.82.023-.023L356.6,353.252l-10.93,6.563Z" transform="translate(-314.734 -292.884)" fill="rgba(246,0,139,0.9)"/>
      <path id="Path_5" data-name="Path 5" d="M361.437,375.459,349.443,385.8l1.064-3.779.045-.023Z" transform="translate(-319.572 -315.091)" fill="rgba(213,56,145,0.9)"/>
      <path id="Path_6" data-name="Path 6" d="M342.469,347.833l-3.621,12.7-4.39,3.417Z" transform="translate(-307.913 -293.597)" fill="rgba(250,96,183,0.9)"/>
      <path id="Path_7" data-name="Path 7" d="M337.681,251.5l-1.109,3.847-3.643-2.1Z" transform="translate(-306.724 -218.649)" fill="#d53891"/>
      <path id="Path_8" data-name="Path 8" d="M335.144,220.858l-4.865,1.561.815-4.662Z" transform="translate(-304.661 -192.398)" fill="rgba(249,114,191,0.87)"/>
      <path id="Path_9" data-name="Path 9" d="M406.976,337.036l-.045.045-6.314,4.911,2.6-7.717,3.757,2.738Z" transform="translate(-359.386 -283.049)" fill="rgba(213,56,145,0.89)" opacity="0.85"/>
      <path id="Path_10" data-name="Path 10" d="M415.8,306.548l.294,8.894L412.34,312.7Z" transform="translate(-368.506 -261.477)" fill="rgba(226,89,167,0.9)"/>
      <path id="Path_11" data-name="Path 11" d="M409.7,306.548l-3.462,6.155-1.742-4.141Z" transform="translate(-362.399 -261.477)" fill="rgba(213,56,145,0.81)"/>
      <path id="Path_12" data-name="Path 12" d="M391.008,315.62l1.742,4.141-5.59,1.765Z" transform="translate(-348.917 -268.535)" fill="rgba(219,48,145,0.72)"/>
      <path id="Path_13" data-name="Path 13" d="M367.133,334.275l-2.6,7.717-10.3,7.988,8.373-9.98Z" transform="translate(-323.299 -283.049)" fill="rgba(213,56,145,0.9)"/>
      <path id="Path_14" data-name="Path 14" d="M367.133,334.275,362.607,340l-8.373,9.98,7.309-13.94Z" transform="translate(-323.299 -283.049)" fill="rgba(218,75,156,0.78)"/>
      <path id="Path_15" data-name="Path 15" d="M391.485,265.058l2.014,4.8-4.911,1.335Z" transform="translate(-350.027 -229.198)" fill="rgba(255,35,160,0.9)"/>
      <path id="Path_16" data-name="Path 16" d="M381.292,292.684l3.53,5.092-5.612-1.131Z" transform="translate(-342.73 -250.691)" fill="rgba(213,56,145,0.74)" opacity="0.88"/>
      <path id="Path_17" data-name="Path 17" d="M384.822,311.655l-3.847,5.906-1.765-7.038Z" transform="translate(-342.73 -264.57)" fill="rgba(213,56,145,0.9)"/>
      <path id="Path_18" data-name="Path 18" d="M380.7,252.527l-4.979.837-1-4.413Z" transform="translate(-339.241 -216.667)" fill="rgba(243,31,151,0.9)"/>
      <path id="Path_19" data-name="Path 19" d="M368.344,268.83l2.082,5.3-5.182-1.335Z" transform="translate(-331.865 -232.132)" fill="rgba(198,38,129,0.9)"/>
      <path id="Path_20" data-name="Path 20" d="M370.426,288l-2.082,3.96-3.1-5.3Z" transform="translate(-331.865 -246.011)" fill="rgba(233,30,145,0.9)"/>
      <path id="Path_21" data-name="Path 21" d="M372.627,310.523l1.765,7.038-3.643,1.132Z" transform="translate(-336.148 -264.57)" fill="rgba(252,71,173,0.9)"/>
      <path id="Path_22" data-name="Path 22" d="M361.544,342.227l-7.309,13.94h0l3.621-12.7.045-.113Z" transform="translate(-323.299 -289.235)" fill="rgba(213,56,145,0.9)"/>
      <path id="Path_23" data-name="Path 23" d="M358.862,248.952l1,4.413-5.522-3.847Z" transform="translate(-323.379 -216.667)" fill="rgba(213,56,145,0.9)"/>
      <path id="Path_24" data-name="Path 24" d="M355.972,268.83l-3.1,3.96-3.53-3.96Z" transform="translate(-319.492 -232.132)" fill="rgba(226,9,132,0.92)"/>
      <path id="Path_25" data-name="Path 25" d="M356.44,286.669l3.1,5.3-5.612.86Z" transform="translate(-323.061 -246.011)" fill="rgba(213,56,145,0.9)"/>
      <path id="Path_26" data-name="Path 26" d="M359.541,310.523l-1.878,8.169-.045.113.023-.113-3.711-7.309Z" transform="translate(-323.061 -264.57)" fill="rgba(237,34,149,0.98)"/>
      <path id="Path_27" data-name="Path 27" d="M355.972,255.347h-6.63l1.109-3.847Z" transform="translate(-319.492 -218.649)" fill="rgba(227,60,155,0.9)"/>
      <path id="Path_28" data-name="Path 28" d="M357.276,235.628l-4.526.566-.453-4.368Z" transform="translate(-321.792 -203.342)" fill="rgba(159,30,103,0.9)"/>
      <path id="Path_29" data-name="Path 29" d="M344.345,268.83l3.53,3.96-4.956,1.358Z" transform="translate(-314.496 -232.132)" fill="rgba(213,56,145,0.7)"/>
      <path id="Path_30" data-name="Path 30" d="M347.875,286.669l-2.512,6.155-2.444-4.8Z" transform="translate(-314.496 -246.011)" fill="rgba(211,109,167,0.9)"/>
      <path id="Path_31" data-name="Path 31" d="M335.166,231.746l.453,4.368-5.341-2.829,4.865-1.561h.023Z" transform="translate(-304.661 -203.263)" fill="rgba(255,130,201,0.9)"/>
      <path id="Path_32" data-name="Path 32" d="M335.619,241.586l-4.752,1.742-.588-4.571Z" transform="translate(-304.661 -208.735)" fill="rgba(245,19,147,0.9)"/>
      <path id="Path_33" data-name="Path 33" d="M337.207,268.83l-1.426,5.318-2.037-4.005Z" transform="translate(-307.358 -232.132)" fill="rgba(232,25,142,0.75)"/>
      <path id="Path_34" data-name="Path 34" d="M321.424,252.651l-3.462,1.313-4.5-5.929,4.322,2.512Z" transform="translate(-291.575 -215.953)" fill="rgba(213,56,145,0.9)" opacity="0.98"/>
      <path id="Path_35" data-name="Path 35" d="M307.221,217.758l-.815,4.662-6.812.272Z" transform="translate(-280.789 -192.398)" fill="rgba(213,56,145,0.9)"/>
      <path id="Path_36" data-name="Path 36" d="M302.2,248.034l4.5,5.929-7.717-4.254Z" transform="translate(-280.313 -215.953)" fill="rgba(213,56,145,0.7)"/>
      <path id="Path_37" data-name="Path 37" d="M317.78,243.329l-4.322-2.512,3.734-2.059Z" transform="translate(-291.575 -208.735)" fill="rgba(213,56,145,0.71)"/>
      <path id="Path_38" data-name="Path 38" d="M306.406,238.758l-3.734,2.059-3.078-1.788Z" transform="translate(-280.789 -208.735)" fill="rgba(184,74,136,0.9)"/>
      <path id="Path_39" data-name="Path 39" d="M289.824,248.034l-3.213,1.675-3.53-1.607Z" transform="translate(-267.941 -215.953)" fill="rgba(238,90,174,0.9)"/>
      <path id="Path_40" data-name="Path 40" d="M289.665,241.769l-6.744.068-.045-.023,3.711-1.833Z" transform="translate(-267.782 -209.687)" fill="rgba(213,56,145,0.9)"/>
      <path id="Path_41" data-name="Path 41" d="M264.618,239.981l-3.711,1.833-6.268-.769Z" transform="translate(-245.813 -209.687)" fill="rgba(246,93,179,0.9)"/>
      <path id="Path_42" data-name="Path 42" d="M270.034,249.947l-8.26-.656,4.594-.95h.136Z" transform="translate(-251.365 -216.191)" fill="rgba(213,56,145,0.9)"/>
      <path id="Path_43" data-name="Path 43" d="M229.976,245.541l-.091.023-15,.136,8.826-.928Z" transform="translate(-214.882 -213.415)" fill="rgba(255,36,160,0.7)"/>
      <path id="Path_44" data-name="Path 44" d="M229.886,248.34l-4.594.95-10.41-.815,11.237-.1Z" transform="translate(-214.882 -216.191)" fill="rgba(213,56,145,0.74)"/>
      <path id="Path_45" data-name="Path 45" d="M384.188,265.058l-4.979.837,2.082,5.3Z" transform="translate(-342.73 -229.198)" fill="rgba(213,56,145,0.9)"/>
      <path id="Path_46" data-name="Path 46" d="M405.871,286.669l-1.38,6.427,5.2-2.014Z" transform="translate(-362.399 -246.011)" fill="rgba(213,56,145,0.9)"/>
      <path id="Path_47" data-name="Path 47" d="M410.219,103.517a.608.608,0,0,0-.611.611.583.583,0,0,0,.113.271l-8.4,7.128a.59.59,0,0,0-.385-.158.608.608,0,0,0-.611.611.666.666,0,0,0,.113.294l-2.806,2.376a.637.637,0,0,0-.34-.136.608.608,0,0,0-.611.611.638.638,0,0,0,.091.249l-4.209,3.575c-.068-.023-.136-.09-.226-.09a.608.608,0,0,0-.611.611c0,.068.045.091.068.136l-4.345,3.689a.736.736,0,0,0-.43-.181.628.628,0,0,0-.611.634.509.509,0,0,0,.136.317l-5.861,4.979a.629.629,0,0,0-.86,0,.587.587,0,0,0-.045.769l-3.417,2.9a.624.624,0,0,0-.837.023.58.58,0,0,0-.045.747l-2.308,1.946h-.023l-.453.385-.43-.339a.6.6,0,0,0,.046.814.588.588,0,0,0,.86,0c.045-.022.023-.045.045-.068l4.979,2.964a.577.577,0,0,0,.068.679.609.609,0,0,0,.9-.815l2.67-2.716a.683.683,0,0,0,.226.091l-1.267,7.06a.524.524,0,0,0-.5.158.583.583,0,0,0,.656.951l3.145,3.621a.59.59,0,0,0,.023.792.608.608,0,0,0,.407.181v-.407l.543-.475.5-.453,5.25-4.639a.608.608,0,0,0,.86-.023.587.587,0,0,0,.045-.77l5.2-4.594v.022a.629.629,0,0,0,.86,0,.6.6,0,0,0,.023-.815l3.892-3.44a.618.618,0,0,0,.43.181.609.609,0,0,0,.611-.611.585.585,0,0,0-.407-.543l2.014-7.219c.023,0,.068.023.091.023a.628.628,0,0,0,.634-.611.6.6,0,0,0-.43-.521l2.263-8.124h.023a.608.608,0,0,0,.611-.611.556.556,0,0,0-.317-.5l2.874-10.365c.045.023.068.045.113.045a.611.611,0,1,0,0-1.222Zm-.453,1c.023,0,.023.045.023.068l-3.44,5.046a.643.643,0,0,0-.317-.136.614.614,0,0,0-.611.634c0,.068.045.113.068.181l-4.051,1.38a.135.135,0,0,1-.023-.09Zm-8.192,7.468c0-.068-.068-.113-.091-.181l4.051-1.381a.529.529,0,0,0,.159.158l-.181.272-3.372,5.114a.58.58,0,0,0-.272-.113c-.023,0-.023.023-.045.023l-.7-3.349A.578.578,0,0,0,401.575,111.981Zm.905,4.435,3.915-.7a.6.6,0,0,0,.2.317l-3.168,4.209a.6.6,0,0,0-.362-.159c-.045,0-.068.046-.113.068L402.072,117a.578.578,0,0,0,.43-.543C402.5,116.439,402.48,116.439,402.48,116.416Zm-2.353,9.708-4.254,4.232a.813.813,0,0,0-.2-.09l1.833-8.034c.045,0,.068.045.113.045a.581.581,0,0,0,.272-.113l2.308,3.146a.557.557,0,0,0-.226.453A.533.533,0,0,0,400.126,126.124Zm-5.227,4.594-7.264-.362a.7.7,0,0,0-.136-.294l4.277-3.349a.083.083,0,0,0,.023.068.612.612,0,0,0,.769.045l2.512,3.53A.689.689,0,0,0,394.9,130.718Zm.113.453-3.8,3.553a.578.578,0,0,0-.7-.045l-3.055-3.847v-.023a.594.594,0,0,0,.159-.339l7.264.362A.574.574,0,0,0,395.012,131.171Zm-2.353-4.39a.492.492,0,0,0,.181-.407.546.546,0,0,0-.158-.407l4.5-3.892c.045.068.136.068.2.113l-1.833,8.033c-.023,0-.045-.022-.068-.022a.666.666,0,0,0-.294.113Zm5.318-4.662a.575.575,0,0,0,.271-.453c0-.023-.022-.023-.022-.045l4.345-.656a.448.448,0,0,0,.249.249l-2.014,4.006c-.068-.023-.136-.091-.2-.091a.505.505,0,0,0-.294.136Zm4.481-1.4c0,.045.045.091.068.136l-4.345.656a.619.619,0,0,0-.159-.294l3.53-4.277a.568.568,0,0,0,.317.136c.045,0,.068-.023.113-.023l.86,3.146A.557.557,0,0,0,402.457,120.716Zm-1.969-8.328a.673.673,0,0,0,.452.226c.045,0,.068-.045.091-.045l.679,3.349a.5.5,0,0,0-.362.34l-3.485-.973c0-.068.045-.09.045-.158a.65.65,0,0,0-.158-.407ZM397.3,115.76a.59.59,0,0,0,.521-.385l3.485,1c0,.023-.045.045-.045.091a.58.58,0,0,0,.181.43l-3.53,4.277a.506.506,0,0,0-.294-.136l-.023.023-.339-5.318C397.275,115.737,397.275,115.76,397.3,115.76Zm-.475-.271a.6.6,0,0,0,.317.2l.34,5.409a.529.529,0,0,0-.362.294l-4.186-1.833c0-.023.045-.045.045-.091A.644.644,0,0,0,392.7,119Zm-4.526,4.571c.023,0,.023.023.045.023a.585.585,0,0,0,.543-.407l4.187,1.833a.337.337,0,0,0-.068.158.507.507,0,0,0,.136.294l-4.526,3.915a.6.6,0,0,0-.317-.113Zm-.452-.339a.491.491,0,0,0,.339.294v5.748a.53.53,0,0,0-.385.158.083.083,0,0,0-.023.068l-4.232-2.037c.045-.091.091-.136.091-.2a.572.572,0,0,0-.136-.339Zm-4.775,4.616a.626.626,0,0,0,.453-.294l4.209,2.059a.49.49,0,0,0,0,.5l-4.277,3.372v-.023a.642.642,0,0,0-.385-.158Zm.272,6.54,3.055,3.847h-.023a.618.618,0,0,0-.181.43l-7.4.611a.568.568,0,0,0-.136-.317l4.028-4.594A.624.624,0,0,0,387.341,130.876Zm3.01,4.684-4.752,4.956a.592.592,0,0,0-.611-.045l-2.422-4.141c.023-.023.068,0,.091-.045a.607.607,0,0,0,.181-.407l7.4-.611A.67.67,0,0,0,390.35,135.561Zm-3.756-11.383a.663.663,0,0,0,.362.158v5.454a.534.534,0,0,0-.362.158.578.578,0,0,0-.136.294l-5.59-.724a.71.71,0,0,0-.136-.362ZM378.266,139a.136.136,0,0,0-.023.091l-4.979-2.987a.67.67,0,0,0-.023-.588l2.286-1.946v.045a.547.547,0,0,0,.656.068l2.24,5.25C378.379,138.955,378.311,138.955,378.266,139Zm.814-.023a.532.532,0,0,0-.543-.09l-2.24-5.25c.045-.023.068,0,.113-.023a.792.792,0,0,0,.113-.294l5.159,2.354a.518.518,0,0,0,.091.566Zm2.693-3.553c-.023.045-.023.091-.045.136l-5.159-2.331a.746.746,0,0,0-.136-.43l3.394-2.874a.594.594,0,0,0,.543.136L382,135.335A.478.478,0,0,0,381.774,135.425Zm-1.29-5.409c.068-.045.158-.045.2-.091a.568.568,0,0,0,.136-.317l5.59.747a.692.692,0,0,0,.158.453l-4.006,4.571a.637.637,0,0,0-.453-.09Zm3.689,18.1-3.1-3.575c.045-.023.068-.023.091-.045a.589.589,0,0,0,0-.86.5.5,0,0,0-.249-.113l1.267-7.06a.639.639,0,0,0,.271-.091l2.444,4.141c-.045.022-.068.022-.113.045a.629.629,0,0,0,0,.86.718.718,0,0,0,.339.136l-.566,6.4A.531.531,0,0,0,384.172,148.12Zm.86.068a.07.07,0,0,1-.023-.045.5.5,0,0,0-.34-.136l.566-6.4a.619.619,0,0,0,.43-.181.4.4,0,0,0,.091-.226l4.933,1.448a.542.542,0,0,0,.09.452Zm5.793-5.861c-.068.045-.068.136-.091.2l-4.933-1.426a.56.56,0,0,0-.113-.5l4.752-4.979a.542.542,0,0,0,.339.136l.385,6.4A.481.481,0,0,0,390.826,142.327Zm.837-.023a.641.641,0,0,0-.385-.159l-.385-6.4a.709.709,0,0,0,.362-.136.717.717,0,0,0,.068-.2l5.477,1.9a.53.53,0,0,0,.068.407Zm5.273-5.341a.477.477,0,0,0-.091.226l-5.476-1.9a.518.518,0,0,0-.091-.475l3.8-3.553a.652.652,0,0,0,.407.159.117.117,0,0,0,.091-.046l1.516,5.522C397.049,136.919,396.981,136.919,396.936,136.964Zm.815-.023a.577.577,0,0,0-.543-.091l-1.516-5.522a.534.534,0,0,0,.317-.272l5.567,1.969c0,.045-.045.068-.045.136a.636.636,0,0,0,.136.339Zm3.87-4.028-5.567-1.969c0-.045.045-.091.045-.136a.59.59,0,0,0-.159-.385l4.277-4.209a.546.546,0,0,0,.385.159c.023,0,.023-.023.068-.023l1.29,6.246A.585.585,0,0,0,401.62,132.913Zm.611-.339c-.023,0-.045-.045-.091-.045-.023,0-.045.023-.068.045l-1.312-6.269a.6.6,0,0,0,.453-.543c0-.046-.023-.046-.045-.091.769-.181,2.014-.475,2.761-.656a.524.524,0,0,0,.317.34Zm2.331-8.328c-.045-.023-.068-.045-.113-.045a.608.608,0,0,0-.611.611.118.118,0,0,0,.045.091c-.747.181-2.014.5-2.738.679a.586.586,0,0,0-.249-.317l2.014-4.005c.068.023.113.068.159.068a.608.608,0,0,0,.611-.611.652.652,0,0,0-.158-.407l3.191-4.232a.384.384,0,0,1,.113.045Zm1.765-8.69c0,.023.023.023.023.046l-3.915.7a.649.649,0,0,0-.181-.294l3.553-5.363c.068.023.136.09.226.09.023,0,.023-.023.045-.023l.792,4.254A.575.575,0,0,0,406.327,115.556Zm.792-.543c-.045-.023-.091-.068-.136-.068l-.815-4.277a.568.568,0,0,0,.272-1L409.9,104.6a.171.171,0,0,0,.09.045Z" transform="translate(-337.222 -103.517)" fill="#e14480"/>
      <circle id="Ellipse_1" data-name="Ellipse 1" cx="0.62" cy="0.62" r="0.62" transform="translate(46.676 44.451)" fill="rgba(213,56,145,0.9)"/>
      <path id="Path_48" data-name="Path 48" d="M393.5,286.669l-1.38,6.427L388.588,288Z" transform="translate(-350.027 -246.011)" fill="rgba(213,32,135,0.9)"/>
    </g>
  </g>
</svg>
